<?xml version="1.0" standalone="no"?>
<!DOCTYPE svg PUBLIC "-//W3C//DTD SVG 20010904//EN"
 "http://www.w3.org/TR/2001/REC-SVG-20010904/DTD/svg10.dtd">
<svg version="1.0" xmlns="http://www.w3.org/2000/svg"
 width="128.000000pt" height="128.000000pt" viewBox="0 0 128.000000 128.000000"
 preserveAspectRatio="xMidYMid meet">
<metadata>
Created by potrace 1.14, written by Peter Selinger 2001-2017
</metadata>
<g transform="translate(0.000000,128.000000) scale(0.100000,-0.100000)"
fill="#000000" stroke="none">
<path d="M75 1261 c-11 -5 -29 -19 -40 -31 -20 -22 -20 -36 -20 -591 l0 -569
28 -27 27 -28 570 0 570 0 27 28 28 27 0 570 0 570 -28 27 -27 28 -558 2
c-306 1 -566 -2 -577 -6z m655 -366 c32 -43 36 -45 83 -45 34 0 61 -8 91 -25
l43 -25 -1 23 c-1 20 5 23 56 27 32 3 62 4 68 2 12 -4 13 -39 1 -44 -11 -4
-71 -123 -71 -141 0 -8 6 -20 14 -26 11 -9 21 2 51 61 23 47 35 81 32 97 -9
44 1 51 64 51 56 0 59 -1 59 -25 0 -14 -3 -25 -7 -25 -5 0 -13 -10 -19 -23
-65 -133 -158 -308 -165 -313 -19 -11 -48 8 -54 35 -3 16 -14 36 -23 45 -16
14 -19 12 -41 -34 -41 -86 -51 -75 -170 171 -90 185 -107 211 -148 223 -13 4
-23 14 -23 22 0 11 15 14 63 14 l63 0 34 -45z m-172 -49 c5 -40 -10 -52 -41
-31 -18 12 -43 15 -93 13 l-69 -3 -5 -52 c-3 -28 -4 -56 -2 -62 2 -6 32 -11
72 -11 51 0 73 -5 91 -18 32 -26 20 -55 -18 -45 -16 5 -53 8 -83 8 l-55 0 -5
-95 c-4 -70 -11 -103 -25 -127 -11 -18 -23 -33 -26 -33 -18 0 -28 57 -23 139
6 119 2 123 -120 120 l-91 -2 -3 26 -3 26 108 3 108 3 2 45 c4 62 -4 88 -27
95 -11 3 -20 13 -20 21 0 12 26 14 163 12 l162 -3 3 -29z"/>
<path d="M780 807 c0 -13 93 -187 100 -187 36 0 -16 142 -63 173 -25 16 -37
21 -37 14z"/>
</g>
</svg>
